<svg width="24" height="24" viewBox="0 0 24 24" fill="none" xmlns="http://www.w3.org/2000/svg">
<path d="M12.5 3.0968V4.37139C17.5963 4.37139 21.7195 8.47556 21.7195 13.5484C21.7195 18.6213 17.5963 22.7254 12.5 22.7254C7.40366 22.7254 3.28049 18.6213 3.28049 13.5484C3.28049 11.9424 3.69024 10.4384 4.43293 9.13834L3.3061 8.52654C2.46098 10.0051 2 11.713 2 13.5484C2 19.3095 6.71219 24 12.5 24C18.2878 24 23 19.3095 23 13.5484C23 7.78728 18.2878 3.0968 12.5 3.0968Z" fill="white"/>
<path fill-rule="evenodd" clip-rule="evenodd" d="M14.6663 0.232287C14.9775 0.542002 14.9775 1.04415 14.6663 1.35387L12.4411 3.56884L14.6663 5.78382C14.9775 6.09354 14.9775 6.59568 14.6663 6.9054C14.3552 7.21512 13.8507 7.21512 13.5396 6.9054L10.7509 4.12963C10.4398 3.81992 10.4398 3.31777 10.7509 3.00805L13.5396 0.232287C13.8507 -0.0774289 14.3552 -0.0774289 14.6663 0.232287Z" fill="white"/>
</svg>
