<?xml version="1.0" encoding="iso-8859-1"?>
<!-- Generator: Adobe Illustrator 18.0.0, SVG Export Plug-In . SVG Version: 6.00 Build 0)  -->
<!DOCTYPE svg PUBLIC "-//W3C//DTD SVG 1.1//EN" "http://www.w3.org/Graphics/SVG/1.1/DTD/svg11.dtd">
<svg version="1.1" id="Capa_1" xmlns="http://www.w3.org/2000/svg" xmlns:xlink="http://www.w3.org/1999/xlink" x="0px" y="0px"
	 viewBox="0 0 219.15 219.15" style="enable-background:new 0 0 219.15 219.15;" xml:space="preserve">
<g>
	<path d="M109.575,0C49.156,0,0.002,49.155,0.002,109.576c0,60.419,49.154,109.574,109.573,109.574s109.573-49.155,109.573-109.574
		C219.148,49.155,169.994,0,109.575,0z M109.575,204.15c-52.148,0-94.573-42.426-94.573-94.574C15.002,57.427,57.427,15,109.575,15
		s94.573,42.427,94.573,94.576C204.148,161.725,161.723,204.15,109.575,204.15z"/>
	<path d="M124.29,62.645c-2.929-2.928-7.678-2.928-10.606,0c-2.929,2.93-2.929,7.678,0,10.607l28.821,28.82l-83.457,0.008
		c-4.143,0-7.5,3.358-7.5,7.501c0,4.142,3.358,7.499,7.5,7.499l83.46-0.008l-28.827,28.825c-2.929,2.929-2.929,7.678,0,10.606
		c1.464,1.465,3.384,2.197,5.303,2.197c1.919,0,3.839-0.732,5.303-2.196l41.629-41.627c1.407-1.407,2.197-3.314,2.197-5.304
		c0-1.989-0.79-3.897-2.197-5.304L124.29,62.645z"/>
</g>
<g>
</g>
<g>
</g>
<g>
</g>
<g>
</g>
<g>
</g>
<g>
</g>
<g>
</g>
<g>
</g>
<g>
</g>
<g>
</g>
<g>
</g>
<g>
</g>
<g>
</g>
<g>
</g>
<g>
</g>
</svg>
