<svg width="21" height="24" viewBox="0 0 21 24" fill="none" xmlns="http://www.w3.org/2000/svg">
<path d="M10.5 3.0968V4.37139C5.40366 4.37139 1.28049 8.47556 1.28049 13.5484C1.28049 18.6213 5.40366 22.7254 10.5 22.7254C15.5963 22.7254 19.7195 18.6213 19.7195 13.5484C19.7195 11.9424 19.3098 10.4384 18.5671 9.13834L19.6939 8.52654C20.539 10.0051 21 11.713 21 13.5484C21 19.3095 16.2878 24 10.5 24C4.71219 24 0 19.3095 0 13.5484C0 7.78728 4.71219 3.0968 10.5 3.0968Z" fill="white"/>
<path fill-rule="evenodd" clip-rule="evenodd" d="M8.33369 0.232287C8.02254 0.542002 8.02254 1.04415 8.33369 1.35387L10.5589 3.56884L8.33369 5.78382C8.02254 6.09354 8.02254 6.59568 8.33369 6.9054C8.64484 7.21512 9.14931 7.21512 9.46046 6.9054L12.2491 4.12963C12.5602 3.81992 12.5602 3.31777 12.2491 3.00805L9.46046 0.232287C9.14931 -0.0774289 8.64484 -0.0774289 8.33369 0.232287Z" fill="white"/>
</svg>
