<svg width="16" height="16" viewBox="0 0 16 16" fill="none" xmlns="http://www.w3.org/2000/svg">
<path d="M6.29004 15.4609C6.77979 15.4609 7.16162 15.27 7.42725 14.8716L15.1968 2.85205C15.396 2.55322 15.4707 2.2876 15.4707 2.03027C15.4707 1.37451 14.9893 0.901367 14.3169 0.901367C13.8521 0.901367 13.5698 1.06738 13.2876 1.51562L6.25684 12.6553L2.6543 8.08984C2.38037 7.74951 2.09814 7.6001 1.69141 7.6001C1.01074 7.6001 0.520996 8.08154 0.520996 8.74561C0.520996 9.03613 0.620605 9.31006 0.861328 9.60059L5.16113 14.8965C5.47656 15.2866 5.8252 15.4609 6.29004 15.4609Z" fill="white"/>
</svg>
