<svg width="12" height="10" viewBox="0 0 12 10" fill="none" xmlns="http://www.w3.org/2000/svg">
<path fill-rule="evenodd" clip-rule="evenodd" d="M9.74921 0.833984C9.86016 0.833984 9.96692 0.878748 10.045 0.957343L10.0451 0.957436C10.1237 1.03552 10.1685 1.14221 10.1685 1.25309C10.1685 1.36396 10.1237 1.47066 10.0451 1.54874L2.54515 9.04396C2.46702 9.12255 2.36026 9.16732 2.24931 9.16732C2.13837 9.16732 2.0316 9.12255 1.95348 9.04396C1.87483 8.96588 1.83004 8.85918 1.83004 8.74831C1.83004 8.63743 1.87483 8.53073 1.95348 8.45266L2.56598 7.84471C1.48426 7.25229 0.645197 6.29879 0.195202 5.15056C0.17541 5.1032 0.165514 5.05219 0.166035 5.00066V4.95902C0.165514 4.90749 0.17541 4.85648 0.195202 4.80911C0.999327 2.64796 3.29517 1.25298 5.99928 1.25298C6.9086 1.25038 7.80964 1.42318 8.65338 1.76099L9.45337 0.957343C9.53151 0.878748 9.63826 0.833984 9.74921 0.833984ZM4.23148 3.23453C3.76274 3.70301 3.49919 4.33854 3.49919 5.00114L3.49921 5.00118C3.49974 5.51644 3.66119 6.01873 3.96171 6.43773L4.57004 5.83396C4.21431 5.18486 4.32941 4.37912 4.85337 3.85602C5.37683 3.33239 6.18307 3.21736 6.83255 3.57286L7.44505 2.96492C7.02366 2.66302 6.51794 2.50115 5.9992 2.50271C5.33616 2.50271 4.70022 2.76609 4.23148 3.23453ZM5.58223 6.60792L7.62381 4.56762C7.65663 4.70972 7.67069 4.85493 7.66548 5.00068C7.66548 5.44259 7.48996 5.86628 7.17746 6.17857C6.86495 6.49086 6.44101 6.66629 5.99883 6.66629C5.8582 6.66472 5.7181 6.64494 5.58217 6.60799L5.58223 6.60792ZM11.8322 4.94399V4.94213L11.8322 4.94477C11.8322 4.94451 11.8322 4.94425 11.8322 4.94399ZM11.8323 4.95864L11.8322 4.94477C11.8324 4.94938 11.8324 4.95401 11.8323 4.95864ZM11.8322 4.94399V5.02541C11.8327 5.07694 11.8228 5.12795 11.803 5.17531C10.9989 7.3406 8.72388 8.74797 6.03231 8.74797C5.27138 8.75057 4.51513 8.63398 3.79073 8.40235L4.91989 7.27389C5.25792 7.42953 5.62718 7.50656 5.99906 7.49875C6.66208 7.49875 7.298 7.23537 7.76677 6.76692C8.23551 6.29848 8.49905 5.66293 8.49905 5.00032C8.5001 4.62659 8.41624 4.25808 8.25322 3.92183L9.81987 2.35616C10.7183 2.94953 11.4116 3.8063 11.8032 4.80873C11.8211 4.8516 11.8309 4.89746 11.8322 4.94399Z" fill="white"/>
</svg>
